<svg
  xmlns="http://www.w3.org/2000/svg"
  viewBox="0 0 64 64"
  class="social-links__svg-vk"
  fill="#fff"
>
  <path
    d="M63.66,46.72a3.92,3.92,0,0,0-.22-.42,33.16,33.16,0,0,0-6.36-7.36L57,38.87l0,0,0,0h0c-1.42-1.36-2.32-2.27-2.7-2.74a2.56,2.56,0,0,1-.46-2.7,24.26,24.26,0,0,1,3-4.36c.91-1.18,1.63-2.12,2.16-2.83q5.78-7.66,5-9.8l-.2-.33a1.86,1.86,0,0,0-1-.55,5.18,5.18,0,0,0-2.13-.09l-9.6.07a1.28,1.28,0,0,0-.67,0l-.43.1-.17.08-.13.1a1.64,1.64,0,0,0-.37.35,2.5,2.5,0,0,0-.33.58,54.12,54.12,0,0,1-3.56,7.5c-.83,1.38-1.58,2.57-2.27,3.58A18.43,18.43,0,0,1,41.29,30,11.87,11.87,0,0,1,40,31.17c-.38.29-.67.42-.87.37l-.56-.13a2.2,2.2,0,0,1-.75-.82,3.69,3.69,0,0,1-.39-1.3c-.06-.52-.1-1-.11-1.35s0-.91,0-1.6,0-1.15,0-1.4c0-.84,0-1.76,0-2.75s.06-1.77.08-2.34,0-1.19,0-1.84a8.34,8.34,0,0,0-.11-1.51,5.82,5.82,0,0,0-.35-1.07,1.86,1.86,0,0,0-.69-.8,3.78,3.78,0,0,0-1.11-.45,21.82,21.82,0,0,0-4.5-.43c-4.13-.05-6.79.22-8,.8a4.29,4.29,0,0,0-1.27,1c-.4.48-.46.75-.17.8a4.08,4.08,0,0,1,2.84,1.43l.2.4a6.48,6.48,0,0,1,.46,1.53,14.54,14.54,0,0,1,.3,2.43,26.2,26.2,0,0,1,0,4.17c-.11,1.15-.21,2.05-.31,2.7a5.33,5.33,0,0,1-.86,2.3.47.47,0,0,1-.16.16,2.32,2.32,0,0,1-.9.17,2,2,0,0,1-1.13-.47,7.61,7.61,0,0,1-1.39-1.28,17.38,17.38,0,0,1-1.61-2.28c-.6-1-1.22-2.13-1.87-3.47l-.53-1c-.34-.62-.79-1.53-1.37-2.72S14,18.12,13.53,17a2.32,2.32,0,0,0-.8-1.07l-.17-.09a2.23,2.23,0,0,0-.53-.29,3.37,3.37,0,0,0-.77-.21l-9.13.06A2.34,2.34,0,0,0,.23,16l-.13.2a1.08,1.08,0,0,0-.1.54,2.79,2.79,0,0,0,.2.9q2,4.7,4.35,9.06c1.57,2.91,2.92,5.26,4.08,7s2.33,3.46,3.53,5,2,2.59,2.38,3,.7.77.92,1l.83.8a20.62,20.62,0,0,0,2.35,1.91,38.64,38.64,0,0,0,3.44,2.2,18.71,18.71,0,0,0,4.38,1.77,15.24,15.24,0,0,0,4.86.55h3.84a2.63,2.63,0,0,0,1.76-.74l.13-.16a2.08,2.08,0,0,0,.25-.62,3.31,3.31,0,0,0,.12-.92,10.94,10.94,0,0,1,.22-2.58,6.72,6.72,0,0,1,.56-1.73,4.22,4.22,0,0,1,.72-1,3.21,3.21,0,0,1,.57-.49l.26-.11a2.12,2.12,0,0,1,1.89.51,11.52,11.52,0,0,1,2,1.94c.63.76,1.39,1.63,2.28,2.58a15.9,15.9,0,0,0,2.33,2.13l.67.4a8,8,0,0,0,1.73.73,3.68,3.68,0,0,0,1.87.17l8.53-.13a3.81,3.81,0,0,0,2-.42,1.66,1.66,0,0,0,.84-.91,2.7,2.7,0,0,0,0-1.14,4.06,4.06,0,0,0-.24-.88Zm0,0"
  />
</svg>