<svg
  xmlns="http://www.w3.org/2000/svg"
  viewBox="0 0 64 64"
  class="social-links__svg-yt"
  fill="#fff"
>
  <path
    d="M63.34,18.21s-.66-4.75-2.54-6.84A8.47,8.47,0,0,0,54.4,8.5C45.46,7.83,32,7.72,32,7.72s-3.36,0-7.85.14-10.08.3-14.55.64a8.92,8.92,0,0,0-6.4,2.87c-2,2.09-2.54,6.84-2.54,6.84A110.51,110.51,0,0,0,0,29.46v5.19A107,107,0,0,0,.66,45.79s.66,4.75,2.54,6.84c2.43,2.76,5.63,2.65,7.06,3,5.08.56,21.74.67,21.74.67s13.46,0,22.4-.78a8.92,8.92,0,0,0,6.4-2.87c1.88-2.09,2.54-6.84,2.54-6.84A109.8,109.8,0,0,0,64,34.65V29.46A110.51,110.51,0,0,0,63.34,18.21ZM24.28,44.8V20.86l21,12.24Z"
  />
</svg>